HIERARCHY
ROOT Hips
{
	OFFSET 0.053599 88.859886 3.107447
	CHANNELS 6 Xposition Yposition Zposition Zrotation Yrotation Xrotation 
	JOINT Spine
	{
		OFFSET -0.000000 8.814246 -2.080107
		CHANNELS 3 Zrotation Yrotation Xrotation
		JOINT Spine1
		{
			OFFSET 0.000000 8.844141 0.000000
			CHANNELS 3 Zrotation Yrotation Xrotation
			JOINT Spine2
			{
				OFFSET -0.000000 11.682268 0.000000
				CHANNELS 3 Zrotation Yrotation Xrotation
				JOINT Spine3
				{
					OFFSET 0.000000 11.746700 0.000000
					CHANNELS 3 Zrotation Yrotation Xrotation
					JOINT Neck
					{
						OFFSET -0.000000 17.658264 -0.000000
						CHANNELS 3 Zrotation Yrotation Xrotation
						JOINT Neck1
						{
							OFFSET -0.000000 5.101515 -0.000000
							CHANNELS 3 Zrotation Yrotation Xrotation
							JOINT Head
							{
								OFFSET 0.000000 5.101515 0.000000
								CHANNELS 3 Zrotation Yrotation Xrotation
								JOINT HeadEnd
								{
									OFFSET 0.000000 11.655085 0.000000
									CHANNELS 3 Zrotation Yrotation Xrotation
									End Site
									{
										OFFSET 0.000000 0.000000 0.000000
									}
								}
							}
						}
					}
					JOINT RightShoulder
					{
						OFFSET -2.625389 11.175210 0.000000
						CHANNELS 3 Zrotation Yrotation Xrotation
						JOINT RightArm
						{
							OFFSET -0.000000 10.434715 -0.000000
							CHANNELS 3 Zrotation Yrotation Xrotation
							JOINT RightForeArm
							{
								OFFSET -0.000000 29.628420 0.000000
								CHANNELS 3 Zrotation Yrotation Xrotation
								JOINT RightHand
								{
									OFFSET -0.000000 22.857611 0.000000
									CHANNELS 3 Zrotation Yrotation Xrotation
									JOINT RightHandThumb1
									{
										OFFSET -2.867323 3.959563 2.944291
										CHANNELS 3 Zrotation Yrotation Xrotation
										JOINT RightHandThumb2
										{
											OFFSET 0.000000 3.350399 0.000000
											CHANNELS 3 Zrotation Yrotation Xrotation
											JOINT RightHandThumb3
											{
												OFFSET 0.000000 3.756509 -0.000000
												CHANNELS 3 Zrotation Yrotation Xrotation
												JOINT RightHandThumb4
												{
													OFFSET 0.000000 3.147345 0.000000
													CHANNELS 3 Zrotation Yrotation Xrotation
													End Site
													{
														OFFSET 0.000000 0.000000 0.000000
													}
												}
											}
										}
									}
									JOINT RightHandIndex1
									{
										OFFSET -0.086752 10.030893 2.345280
										CHANNELS 3 Zrotation Yrotation Xrotation
										JOINT RightHandIndex2
										{
											OFFSET -0.000000 4.061090 0.000000
											CHANNELS 3 Zrotation Yrotation Xrotation
											JOINT RightHandIndex3
											{
												OFFSET -0.000000 3.248873 0.000000
												CHANNELS 3 Zrotation Yrotation Xrotation
												JOINT RightHandIndex4
												{
													OFFSET 0.000000 2.639709 -0.000000
													CHANNELS 3 Zrotation Yrotation Xrotation
													End Site
													{
														OFFSET 0.000000 0.000000 0.000000
													}
												}
											}
										}
									}
									JOINT RightHandMiddle1
									{
										OFFSET 0.104102 9.502952 0.006768
										CHANNELS 3 Zrotation Yrotation Xrotation
										JOINT RightHandMiddle2
										{
											OFFSET 0.000000 4.568727 0.000000
											CHANNELS 3 Zrotation Yrotation Xrotation
											JOINT RightHandMiddle3
											{
												OFFSET 0.000000 3.654981 -0.000000
												CHANNELS 3 Zrotation Yrotation Xrotation
												JOINT RightHandMiddle4
												{
													OFFSET -0.000000 2.741236 -0.000000
													CHANNELS 3 Zrotation Yrotation Xrotation
													End Site
													{
														OFFSET 0.000000 0.000000 0.000000
													}
												}
											}
										}
									}
									JOINT RightHandRing1
									{
										OFFSET 0.086752 8.921708 -2.267442
										CHANNELS 3 Zrotation Yrotation Xrotation
										JOINT RightHandRing2
										{
											OFFSET -0.000000 4.061090 0.000000
											CHANNELS 3 Zrotation Yrotation Xrotation
											JOINT RightHandRing3
											{
												OFFSET 0.000000 3.654981 -0.000000
												CHANNELS 3 Zrotation Yrotation Xrotation
												JOINT RightHandRing4
												{
													OFFSET 0.000000 2.741236 -0.000000
													CHANNELS 3 Zrotation Yrotation Xrotation
													End Site
													{
														OFFSET 0.000000 0.000000 0.000000
													}
												}
											}
										}
									}
									JOINT RightHandPinky1
									{
										OFFSET -0.173504 7.976997 -4.467199
										CHANNELS 3 Zrotation Yrotation Xrotation
										JOINT RightHandPinky2
										{
											OFFSET 0.000000 3.350399 -0.000000
											CHANNELS 3 Zrotation Yrotation Xrotation
											JOINT RightHandPinky3
											{
												OFFSET -0.000000 2.842763 0.000000
												CHANNELS 3 Zrotation Yrotation Xrotation
												JOINT RightHandPinky4
												{
													OFFSET -0.000000 2.639709 0.000000
													CHANNELS 3 Zrotation Yrotation Xrotation
													End Site
													{
														OFFSET 0.000000 0.000000 0.000000
													}
												}
											}
										}
									}
									JOINT RightForeArmEnd
									{
										OFFSET 0.000000 0.000000 0.000000
										CHANNELS 3 Zrotation Yrotation Xrotation
										End Site
										{
											OFFSET 0.000000 0.000000 0.000000
										}
									}
								}
								JOINT RightArmEnd
								{
									OFFSET 0.000000 0.000000 0.000000
									CHANNELS 3 Zrotation Yrotation Xrotation
									End Site
									{
										OFFSET 0.000000 0.000000 0.000000
									}
								}
							}
						}
					}
					JOINT LeftShoulder
					{
						OFFSET 2.625389 11.175210 0.000000
						CHANNELS 3 Zrotation Yrotation Xrotation
						JOINT LeftArm
						{
							OFFSET 0.000000 10.813635 -0.000000
							CHANNELS 3 Zrotation Yrotation Xrotation
							JOINT LeftForeArm
							{
								OFFSET 0.000000 28.724781 0.000000
								CHANNELS 3 Zrotation Yrotation Xrotation
								JOINT LeftHand
								{
									OFFSET 0.644384 25.716167 -0.328871
									CHANNELS 3 Zrotation Yrotation Xrotation
									JOINT LeftHandThumb1
									{
										OFFSET 2.867323 3.959563 2.944291
										CHANNELS 3 Zrotation Yrotation Xrotation
										JOINT LeftHandThumb2
										{
											OFFSET 0.000000 3.350399 0.000000
											CHANNELS 3 Zrotation Yrotation Xrotation
											JOINT LeftHandThumb3
											{
												OFFSET -0.000000 3.756509 0.000000
												CHANNELS 3 Zrotation Yrotation Xrotation
												JOINT LeftHandThumb4
												{
													OFFSET -0.000000 3.100000 0.000000
													CHANNELS 3 Zrotation Yrotation Xrotation
													End Site
													{
														OFFSET 0.000000 0.000000 0.000000
													}
												}
											}
										}
									}
									JOINT LeftHandIndex1
									{
										OFFSET 0.086752 10.030893 2.345280
										CHANNELS 3 Zrotation Yrotation Xrotation
										JOINT LeftHandIndex2
										{
											OFFSET -0.000000 4.061090 -0.000000
											CHANNELS 3 Zrotation Yrotation Xrotation
											JOINT LeftHandIndex3
											{
												OFFSET 0.000000 3.248873 -0.000000
												CHANNELS 3 Zrotation Yrotation Xrotation
												JOINT LeftHandIndex4
												{
													OFFSET 0.000000 2.639709 -0.000000
													CHANNELS 3 Zrotation Yrotation Xrotation
													End Site
													{
														OFFSET 0.000000 0.000000 0.000000
													}
												}
											}
										}
									}
									JOINT LeftHandMiddle1
									{
										OFFSET -0.104102 9.502952 0.006768
										CHANNELS 3 Zrotation Yrotation Xrotation
										JOINT LeftHandMiddle2
										{
											OFFSET -0.000000 4.568727 -0.000000
											CHANNELS 3 Zrotation Yrotation Xrotation
											JOINT LeftHandMiddle3
											{
												OFFSET 0.000000 3.654981 0.000000
												CHANNELS 3 Zrotation Yrotation Xrotation
												JOINT LeftHandMiddle4
												{
													OFFSET 0.000000 2.741236 -0.000000
													CHANNELS 3 Zrotation Yrotation Xrotation
													End Site
													{
														OFFSET 0.000000 0.000000 0.000000
													}
												}
											}
										}
									}
									JOINT LeftHandRing1
									{
										OFFSET -0.086752 8.921708 -2.267442
										CHANNELS 3 Zrotation Yrotation Xrotation
										JOINT LeftHandRing2
										{
											OFFSET 0.000000 4.061090 0.000000
											CHANNELS 3 Zrotation Yrotation Xrotation
											JOINT LeftHandRing3
											{
												OFFSET 0.000000 3.654981 0.000000
												CHANNELS 3 Zrotation Yrotation Xrotation
												JOINT LeftHandRing4
												{
													OFFSET 0.000000 2.741236 0.000000
													CHANNELS 3 Zrotation Yrotation Xrotation
													End Site
													{
														OFFSET 0.000000 0.000000 0.000000
													}
												}
											}
										}
									}
									JOINT LeftHandPinky1
									{
										OFFSET 0.173504 7.976997 -4.467199
										CHANNELS 3 Zrotation Yrotation Xrotation
										JOINT LeftHandPinky2
										{
											OFFSET -0.000000 3.350399 -0.000000
											CHANNELS 3 Zrotation Yrotation Xrotation
											JOINT LeftHandPinky3
											{
												OFFSET 0.000000 2.842763 0.000000
												CHANNELS 3 Zrotation Yrotation Xrotation
												JOINT LeftHandPinky4
												{
													OFFSET -0.000000 2.639709 -0.000000
													CHANNELS 3 Zrotation Yrotation Xrotation
													End Site
													{
														OFFSET 0.000000 0.000000 0.000000
													}
												}
											}
										}
									}
									JOINT LeftForeArmEnd
									{
										OFFSET 0.000000 0.000000 0.000000
										CHANNELS 3 Zrotation Yrotation Xrotation
										End Site
										{
											OFFSET 0.000000 0.000000 0.000000
										}
									}
								}
								JOINT LeftArmEnd
								{
									OFFSET 0.000000 0.000000 0.000000
									CHANNELS 3 Zrotation Yrotation Xrotation
									End Site
									{
										OFFSET 0.000000 0.000000 0.000000
									}
								}
							}
						}
					}
				}
			}
		}
	}
	JOINT RightUpLeg
	{
		OFFSET -11.289943 0.000000 0.000000
		CHANNELS 3 Zrotation Yrotation Xrotation
		JOINT RightLeg
		{
			OFFSET 0.000000 -38.200325 0.000000
			CHANNELS 3 Zrotation Yrotation Xrotation
			JOINT RightFoot
			{
				OFFSET -0.000000 -39.900856 -0.000000
				CHANNELS 3 Zrotation Yrotation Xrotation
				JOINT RightToeBase
				{
					OFFSET 0.000000 0.000000 15.261641
					CHANNELS 3 Zrotation Yrotation Xrotation
					JOINT RightToeBaseEnd
					{
						OFFSET 0.000000 0.000000 7.370709
						CHANNELS 3 Zrotation Yrotation Xrotation
						End Site
						{
							OFFSET 0.000000 0.000000 0.000000
						}
					}
				}
				JOINT RightLegEnd
				{
					OFFSET 0.000000 0.000000 0.000000
					CHANNELS 3 Zrotation Yrotation Xrotation
					End Site
					{
						OFFSET 0.000000 0.000000 0.000000
					}
				}
			}
			JOINT RightUpLegEnd
			{
				OFFSET 0.000000 0.000000 0.000000
				CHANNELS 3 Zrotation Yrotation Xrotation
				End Site
				{
					OFFSET 0.000000 0.000000 0.000000
				}
			}
		}
	}
	JOINT LeftUpLeg
	{
		OFFSET 11.315661 -0.000000 0.000000
		CHANNELS 3 Zrotation Yrotation Xrotation
		JOINT LeftLeg
		{
			OFFSET -0.000000 -38.200325 -0.000000
			CHANNELS 3 Zrotation Yrotation Xrotation
			JOINT LeftFoot
			{
				OFFSET 0.000000 -39.900856 -0.000000
				CHANNELS 3 Zrotation Yrotation Xrotation
				JOINT LeftToeBase
				{
					OFFSET -0.000000 -0.000000 15.261641
					CHANNELS 3 Zrotation Yrotation Xrotation
					JOINT LeftToeBaseEnd
					{
						OFFSET 0.000000 -0.000000 7.539996
						CHANNELS 3 Zrotation Yrotation Xrotation
						End Site
						{
							OFFSET 0.000000 0.000000 0.000000
						}
					}
				}
				JOINT LeftLegEnd
				{
					OFFSET 0.000000 0.000000 0.000000
					CHANNELS 3 Zrotation Yrotation Xrotation
					End Site
					{
						OFFSET 0.000000 0.000000 0.000000
					}
				}
			}
			JOINT LeftUpLegEnd
			{
				OFFSET 0.000000 0.000000 0.000000
				CHANNELS 3 Zrotation Yrotation Xrotation
				End Site
				{
					OFFSET 0.000000 0.000000 0.000000
				}
			}
		}
	}
}
MOTION
Frames: 5
Frame Time: 0.016667
0.053599 88.859886 3.107447 0.490481 0.055862 -6.497332 0.023754 -0.000539 5.886370 -1.012250 0.067046 0.861970 0.478071 -2.416792 3.829567 0.155030 -0.780500 1.929224 2.330515 0.848112 5.016849 0.371683 2.117863 -3.221864 -0.714533 -0.852149 -18.222401 0.000000 0.000000 0.000000 92.418694 -0.394880 9.707912 65.456573 -33.431271 5.091406 -0.130291 12.440493 22.353239 6.882370 13.743960 -6.458578 19.861429 30.097643 62.040974 -8.462701 -12.164348 -20.450144 -6.325801 -8.139122 -14.332924 0.000000 0.000000 0.000000 12.621688 -10.712396 0.231899 8.905269 0.376633 1.323778 8.902945 -0.111869 1.243825 0.000000 0.000000 0.000000 11.194713 -5.446730 -1.239449 7.889823 0.455857 0.481039 7.889222 -0.037052 0.412494 0.000000 0.000000 0.000000 10.912717 2.564455 -1.535874 7.825817 -0.947299 -0.611652 7.824722 0.070320 -0.477096 0.000000 0.000000 0.000000 9.631022 11.185607 -2.805182 7.161172 -1.900893 -1.652070 7.157181 0.085565 -1.400512 0.000000 0.000000 0.000000 0.000000 0.000000 0.000000 0.000000 0.000000 0.000000 -90.370071 0.051974 5.208683 -71.842018 19.306828 -7.574249 -0.664994 -8.642401 40.885647 -0.139946 -25.486511 -15.477552 -20.250540 -29.996990 61.691063 8.807010 12.918287 -21.553112 6.618044 8.635277 -15.110494 0.000000 0.000000 0.000000 -16.168392 -5.636370 -1.918335 -11.569428 0.324957 -1.715407 -11.569072 -0.164917 -1.615128 0.000000 0.000000 0.000000 -15.643335 -0.758781 -1.694552 -11.169063 0.440303 -0.678956 -11.168735 -0.058746 -0.582722 0.000000 0.000000 0.000000 -18.003109 7.607869 -1.025503 -12.703986 -0.874371 0.992852 -12.702737 0.099213 0.772902 0.000000 0.000000 0.000000 -18.852142 16.262062 -0.245862 -13.102126 -1.657223 2.980032 -13.096694 0.281077 2.526406 0.000000 0.000000 0.000000 0.000000 0.000000 0.000000 0.000000 0.000000 0.000000 -1.045058 -10.518975 11.869204 -0.078405 -0.635030 3.758801 -2.197730 -7.901679 18.681496 -0.890004 0.828132 -18.870453 0.000000 0.000000 0.000000 0.000000 0.000000 0.000000 0.000000 0.000000 0.000000 -1.784023 -6.543907 7.474547 0.053202 0.398207 7.545935 3.843466 -1.785134 17.966772 0.194973 -0.390531 -20.817129 0.000000 0.000000 0.000000 0.000000 0.000000 0.000000 0.000000 0.000000 0.000000 
0.112862 88.910469 2.910239 -0.277078 -0.301987 -7.322983 1.302427 -0.185920 6.640273 -0.972218 0.121355 2.683469 0.755796 -1.618128 1.553062 -0.891399 -0.172692 3.083871 1.324471 2.289536 3.140550 0.345698 2.952777 -3.808168 -1.046342 -0.581323 -18.450562 0.000000 0.000000 0.000000 92.982689 -0.455057 9.595432 65.004532 -32.161274 4.021185 -0.121754 13.062198 23.186489 6.793793 13.176661 -6.882400 19.880999 30.093306 62.071732 -8.435065 -12.088821 -20.449127 -6.295776 -8.101674 -14.285423 0.000000 0.000000 0.000000 12.026826 -10.747314 -0.309831 8.985377 0.330905 1.332796 8.774999 -0.109888 1.267383 0.000000 0.000000 0.000000 10.857998 -5.353094 -1.104549 7.646122 0.421154 0.519796 8.017456 -0.053822 0.444662 0.000000 0.000000 0.000000 10.304491 2.577737 -0.834052 7.454708 -0.887329 -0.854533 7.495892 0.068741 -0.627979 0.000000 0.000000 0.000000 9.591157 11.053607 -1.771678 7.149067 -1.644423 -2.436085 6.735375 0.281816 -2.056069 0.000000 0.000000 0.000000 0.000000 0.000000 0.000000 0.000000 0.000000 0.000000 -89.908859 0.126642 6.011923 -71.678329 19.599792 -6.556645 -1.221794 -9.049273 40.450924 1.989536 -23.231014 -16.047010 -20.250626 -29.965897 61.605442 8.886531 12.956690 -21.694054 6.653775 8.672266 -15.163402 0.000000 0.000000 0.000000 -17.232611 -5.490300 -0.156316 -11.008736 0.291427 -1.398755 -11.126431 -0.171131 -1.290487 0.000000 0.000000 0.000000 -16.573883 -0.504744 -0.935866 -10.894468 0.407364 -0.591333 -10.814363 -0.067571 -0.475142 0.000000 0.000000 0.000000 -18.721355 7.537127 -0.755481 -12.402312 -0.867764 0.849722 -12.378567 0.085247 0.660338 0.000000 0.000000 0.000000 -19.956205 15.951035 -1.154908 -12.967459 -1.545767 2.646940 -12.821014 0.347127 2.250898 0.000000 0.000000 0.000000 0.000000 0.000000 0.000000 0.000000 0.000000 0.000000 0.135414 -9.179890 11.024149 -0.048536 -0.639056 6.175489 -2.886576 -9.054552 17.695282 -0.795860 0.751653 -19.037201 0.000000 0.000000 0.000000 0.000000 0.000000 0.000000 0.000000 0.000000 0.000000 -1.544763 -6.346537 7.176690 0.057693 0.365968 8.528394 3.739925 -0.569334 16.977331 0.388646 -0.472260 -20.509743 0.000000 0.000000 0.000000 0.000000 0.000000 0.000000 0.000000 0.000000 0.000000 
0.117805 88.892433 2.897539 -0.298461 -0.357838 -7.390126 1.298560 -0.172840 6.675128 -0.908106 0.108450 2.659279 0.758009 -1.587798 1.644136 -0.874426 -0.147843 3.121267 1.271513 2.202393 3.078491 0.334927 2.868396 -3.802537 -1.058407 -0.618480 -18.415802 0.000000 0.000000 0.000000 92.873039 -0.459076 9.531459 64.999672 -32.421955 4.053755 -0.078926 13.094293 23.244860 6.587940 12.799525 -6.874286 19.866299 30.095205 62.073090 -8.434622 -12.074496 -20.431152 -6.296267 -8.087793 -14.271450 0.000000 0.000000 0.000000 12.019780 -10.745175 -0.355379 9.015721 0.333032 1.319757 8.820279 -0.105640 1.253002 0.000000 0.000000 0.000000 10.885341 -5.348576 -1.108724 7.691054 0.420449 0.513978 8.064998 -0.053168 0.440460 0.000000 0.000000 0.000000 10.351032 2.560132 -0.804111 7.541638 -0.886510 -0.847511 7.580888 0.066628 -0.620490 0.000000 0.000000 0.000000 9.586188 11.029125 -1.673015 7.167918 -1.645764 -2.427692 6.773877 0.277471 -2.039052 0.000000 0.000000 0.000000 0.000000 0.000000 0.000000 0.000000 0.000000 0.000000 -89.854012 0.128876 6.044287 -71.843323 19.766600 -6.576461 -1.217152 -9.076416 40.535557 2.205001 -22.948654 -16.064529 -20.239700 -29.972740 61.618198 8.865664 12.933049 -21.657402 6.639368 8.652748 -15.134293 0.000000 0.000000 0.000000 -17.133171 -5.531142 -0.246615 -11.093402 0.291370 -1.388686 -11.190349 -0.168599 -1.283715 0.000000 0.000000 0.000000 -16.486279 -0.531234 -0.996608 -10.981396 0.406791 -0.590882 -10.900638 -0.068250 -0.475611 0.000000 0.000000 0.000000 -18.694227 7.530212 -0.823919 -12.500957 -0.867001 0.851255 -12.458040 0.085297 0.661291 0.000000 0.000000 0.000000 -19.943298 15.953017 -1.227494 -13.020679 -1.546657 2.631412 -12.849810 0.344791 2.250273 0.000000 0.000000 0.000000 0.000000 0.000000 0.000000 0.000000 0.000000 0.000000 0.138239 -9.125053 11.121444 -0.048795 -0.641291 6.099796 -2.834453 -9.068956 17.723183 -0.800785 0.749926 -19.035589 0.000000 0.000000 0.000000 0.000000 0.000000 0.000000 0.000000 0.000000 0.000000 -1.520768 -6.282034 7.159050 0.056654 0.355747 8.616898 3.748290 -0.542338 16.975624 0.371496 -0.475537 -20.533316 0.000000 0.000000 0.000000 0.000000 0.000000 0.000000 0.000000 0.000000 0.000000 
0.122816 88.881142 2.900496 -0.311945 -0.409059 -7.474471 1.299833 -0.162615 6.681005 -0.887906 0.108876 2.648894 0.772602 -1.575128 1.704002 -0.865169 -0.120378 3.180251 1.225665 2.158818 3.048816 0.348341 2.825581 -3.775319 -1.057842 -0.637930 -18.397663 0.000000 0.000000 0.000000 92.778099 -0.466914 9.489556 65.076851 -32.383598 3.956890 -0.071640 13.111075 23.395945 6.569023 12.477345 -6.870342 19.872677 30.094446 62.062229 -8.442916 -12.099898 -20.464529 -6.304187 -8.097649 -14.293959 0.000000 0.000000 0.000000 12.071816 -10.767530 -0.368122 9.110149 0.336473 1.303196 8.922309 -0.101684 1.235991 0.000000 0.000000 0.000000 10.950418 -5.358833 -1.096564 7.786126 0.421454 0.506468 8.157007 -0.051624 0.434041 0.000000 0.000000 0.000000 10.412442 2.554555 -0.753421 7.642846 -0.887297 -0.840851 7.676311 0.065074 -0.613910 0.000000 0.000000 0.000000 9.595057 11.033475 -1.552041 7.209368 -1.647408 -2.425364 6.828397 0.276191 -2.034698 0.000000 0.000000 0.000000 0.000000 0.000000 0.000000 0.000000 0.000000 0.000000 -89.815506 0.136277 6.053486 -71.992500 19.817120 -6.603875 -1.181231 -9.104064 40.562908 2.265415 -22.730915 -15.925994 -20.246027 -29.975271 61.617748 8.860778 12.930041 -21.666529 6.637115 8.653934 -15.135222 0.000000 0.000000 0.000000 -17.120714 -5.561357 -0.224689 -11.148006 0.292657 -1.376235 -11.225142 -0.166360 -1.274560 0.000000 0.000000 0.000000 -16.473373 -0.545902 -0.967755 -11.038923 0.406848 -0.586916 -10.966514 -0.068375 -0.472396 0.000000 0.000000 0.000000 -18.738873 7.532836 -0.778023 -12.567324 -0.867537 0.853242 -12.523080 0.084744 0.661381 0.000000 0.000000 0.000000 -20.019564 15.957905 -1.199552 -13.078340 -1.546129 2.636939 -12.882794 0.348139 2.261960 0.000000 0.000000 0.000000 0.000000 0.000000 0.000000 0.000000 0.000000 0.000000 0.131531 -9.073889 11.231448 -0.048703 -0.639214 6.077307 -2.796110 -9.074408 17.746027 -0.804686 0.749143 -19.036730 0.000000 0.000000 0.000000 0.000000 0.000000 0.000000 0.000000 0.000000 0.000000 -1.510255 -6.236221 7.157496 0.056219 0.352872 8.725361 3.763280 -0.514037 16.956442 0.363946 -0.478390 -20.538891 0.000000 0.000000 0.000000 0.000000 0.000000 0.000000 0.000000 0.000000 0.000000 
0.130132 88.872444 2.906529 -0.326452 -0.456196 -7.554666 1.308827 -0.154862 6.677930 -0.875426 0.109896 2.636408 0.780142 -1.552829 1.760166 -0.860004 -0.096686 3.230066 1.149865 2.157187 3.079064 0.365548 2.805771 -3.726869 -1.049878 -0.651466 -18.408892 0.000000 0.000000 0.000000 92.718956 -0.467941 9.478298 65.219696 -32.260689 3.813408 -0.072721 13.189129 23.521935 6.567162 12.220741 -6.818947 19.888941 30.091005 62.042305 -8.458330 -12.144252 -20.522188 -6.319329 -8.122014 -14.332272 0.000000 0.000000 0.000000 12.192687 -10.802905 -0.351124 9.219614 0.345240 1.275234 9.036743 -0.092358 1.210522 0.000000 0.000000 0.000000 11.081396 -5.383962 -1.059883 7.895950 0.425496 0.493703 8.262317 -0.047839 0.423577 0.000000 0.000000 0.000000 10.543222 2.537533 -0.675632 7.754797 -0.892873 -0.824605 7.779047 0.060368 -0.600538 0.000000 0.000000 0.000000 9.662055 11.032365 -1.412514 7.272488 -1.662971 -2.389680 6.898754 0.263653 -2.003927 0.000000 0.000000 0.000000 0.000000 0.000000 0.000000 0.000000 0.000000 0.000000 -89.791008 0.132871 6.059183 -72.069519 19.838943 -6.595025 -1.154740 -9.136779 40.618450 2.202431 -22.622200 -15.770035 -20.245686 -29.976049 61.618195 8.863987 12.916918 -21.665569 6.635527 8.646316 -15.131672 0.000000 0.000000 0.000000 -17.119017 -5.578442 -0.160959 -11.153626 0.302360 -1.340948 -11.216769 -0.155836 -1.244418 0.000000 0.000000 0.000000 -16.477211 -0.552868 -0.898152 -11.041252 0.410657 -0.572425 -10.982826 -0.065226 -0.460609 0.000000 0.000000 0.000000 -18.778831 7.529573 -0.685814 -12.585312 -0.873541 0.840146 -12.534828 0.079988 0.650627 0.000000 0.000000 0.000000 -20.094540 15.949843 -1.129084 -13.098204 -1.561645 2.598277 -12.879629 0.336843 2.235741 0.000000 0.000000 0.000000 0.000000 0.000000 0.000000 0.000000 0.000000 0.000000 0.124602 -9.024390 11.330158 -0.048746 -0.636529 6.079852 -2.770570 -9.049470 17.756474 -0.805696 0.745691 -19.034559 0.000000 0.000000 0.000000 0.000000 0.000000 0.000000 0.000000 0.000000 0.000000 -1.508960 -6.211383 7.167457 0.055898 0.349429 8.821243 3.772533 -0.466774 16.941206 0.361334 -0.479061 -20.540035 0.000000 0.000000 0.000000 0.000000 0.000000 0.000000 0.000000 0.000000 0.000000 
